<svg width="1556" height="783" viewBox="0 0 1556 783" fill="none" xmlns="http://www.w3.org/2000/svg">
<path id="Vector 1" d="M613 772L1235 768.5L1287.5 766L1358 754.5L1390.5 750.5L1429 744L1481 727L1510.5 708L1526 691.5L1539 672L1548 648V621.5L1541.5 609L1533.5 598.5L1513 587.5L1491.5 582.5L846.5 575L825.5 569.5L814.5 558L802 543.5L782.5 534L766.5 532.5H752.5L734 536.5L718.5 539.5L704 534L604.5 446.5L370 220L254.5 50L230.5 18L212 8H186.5L40 36.5L19.5 50L10 64.5L8.5 93.5L67.5 238.5L78 286L82 295.5L95.5 299L109 304L119.5 313.5L124.5 331.5L160 579.5L185 648.5L224 706.5L276 748.5L318 765.5L369 775L476 774L490.5 772L581 739L588 740.5L590 749.5V756.5L593 764L602.5 769L613 772Z" stroke="#FFFEFE" stroke-width="15"/>
</svg>
